<?xml version="1.0" encoding="UTF-8"?>
<svg width="222px" height="101px" viewBox="0 0 222 101" version="1.1" xmlns="http://www.w3.org/2000/svg" xmlns:xlink="http://www.w3.org/1999/xlink">
    <!-- Generator: Sketch 61.2 (89653) - https://sketch.com -->
    <title>logo_full_header_color</title>
    <desc>Created with Sketch.</desc>
    <g id="Page-1" stroke="none" stroke-width="1" fill="none" fill-rule="evenodd">
        <g id="logo_full_header_color">
            <path d="M27.36,37.632 L27.36,64.512 L0.48,64.512 L0.48,37.632 L27.36,37.632 Z M64.992,37.632 L64.992,64.512 L38.112,64.512 L38.112,37.632 L64.992,37.632 Z M27.36,-8.86757334e-14 L27.36,26.88 L0.48,26.88 L0.48,-8.86757334e-14 L27.36,-8.86757334e-14 Z M64.992,-8.86757334e-14 L64.992,26.88 L38.112,26.88 L38.112,-8.86757334e-14 L64.992,-8.86757334e-14 Z" id="Shape-Copy" fill="#59C9DE"></path>
            <path d="M170.496,37.632 C177.918707,37.632 183.936,43.649293 183.936,51.072 C183.936,58.494707 177.918707,64.512 170.496,64.512 C163.073293,64.512 157.056,58.494707 157.056,51.072 C157.056,43.649293 163.073293,37.632 170.496,37.632 Z M208.128,37.632 C215.550707,37.632 221.568,43.649293 221.568,51.072 C221.568,58.494707 215.550707,64.512 208.128,64.512 C200.705293,64.512 194.688,58.494707 194.688,51.072 C194.688,43.649293 200.705293,37.632 208.128,37.632 Z M170.496,-8.86757334e-14 C177.918707,-8.86757334e-14 183.936,6.01729296 183.936,13.44 C183.936,20.862707 177.918707,26.88 170.496,26.88 C163.073293,26.88 157.056,20.862707 157.056,13.44 C157.056,6.01729296 163.073293,-8.86757334e-14 170.496,-8.86757334e-14 Z M208.128,-8.86757334e-14 C215.550707,-8.86757334e-14 221.568,6.01729296 221.568,13.44 C221.568,20.862707 215.550707,26.88 208.128,26.88 C200.705293,26.88 194.688,20.862707 194.688,13.44 C194.688,6.01729296 200.705293,-8.86757334e-14 208.128,-8.86757334e-14 Z" id="Shape-Copy-2" fill="#F44668"></path>
            <path d="M143.616,-6.13908924e-14 L143.616,64.512 L79.104,64.512 L79.104,-6.13908924e-14 L143.616,-6.13908924e-14 Z M111.36,13.2489697 L92.3529697,32.256 L111.36,51.2630303 L130.36703,32.256 L111.36,13.2489697 Z" id="Shape-Copy-3" fill="#FDD231"></path>
            <path d="M6.68407411,96.7259726 C8.15401572,96.7259726 9.3743446,96.3350306 10.3727955,95.6927687 L10.3727955,96.3908795 L14.8658246,96.3908795 L14.8658246,78.2644951 L10.3727955,78.2644951 L10.3727955,83.629415 C9.3743446,82.9871531 8.15401572,82.5962111 6.68407411,82.5962111 C3.05082221,82.5962111 2.72848411e-14,85.6120495 2.72848411e-14,89.6331674 C2.72848411e-14,93.6822098 3.05082221,96.7259726 6.68407411,96.7259726 Z M7.57158602,93.0120235 C5.7410927,93.0120235 4.40982483,91.5320287 4.40982483,89.6331674 C4.40982483,87.790155 5.7410927,86.2822358 7.57158602,86.2822358 C8.57003693,86.2822358 9.54075309,86.5894046 10.3727955,87.5667596 L10.3727955,91.7554241 C9.54075309,92.7327792 8.57003693,93.0120235 7.57158602,93.0120235 Z M23.6453503,96.6701238 C25.1152919,96.6701238 26.3356208,96.2791818 27.3340717,95.6369199 L27.3340717,96.3908795 L31.8271008,96.3908795 L31.8271008,82.8475309 L27.3340717,82.8475309 L27.3340717,83.5735661 C26.3356208,82.9313042 25.1152919,82.5403622 23.6453503,82.5403622 C20.0120984,82.5403622 16.9612762,85.5562007 16.9612762,89.605243 C16.9612762,93.6263609 20.0120984,96.6701238 23.6453503,96.6701238 Z M24.5328622,92.9561746 C22.7023689,92.9561746 21.371101,91.4761798 21.371101,89.605243 C21.371101,87.7343062 22.7023689,86.226387 24.5328622,86.226387 C25.5313131,86.226387 26.5020293,86.5335557 27.3340717,87.5109107 L27.3340717,91.6995752 C26.5020293,92.6769303 25.5313131,92.9561746 24.5328622,92.9561746 Z M41.32773,96.8097459 C42.6589978,96.8097459 43.6574487,96.6980482 45.4047378,96.1395596 L44.9055124,92.3139127 C43.9070615,92.5093837 43.1582233,92.6490059 42.5203241,92.6490059 C41.1890562,92.6490059 40.4124833,91.9788195 40.4124833,90.6105225 L40.4124833,86.7290267 L44.9887166,86.7290267 L44.9887166,82.8475309 L40.4124833,82.8475309 L40.4124833,78.24 L35.9208261,78.24 L35.9194542,82.8475309 L33.2846532,82.8475309 L33.2846532,86.7290267 L35.9194542,86.7290267 L35.9194542,90.7501446 C35.9194542,94.408245 38.0827645,96.8097459 41.32773,96.8097459 Z M53.0194042,96.6701238 C54.4893458,96.6701238 55.7096747,96.2791818 56.7081256,95.6369199 L56.7081256,96.3908795 L61.2011547,96.3908795 L61.2011547,82.8475309 L56.7081256,82.8475309 L56.7081256,83.5735661 C55.7096747,82.9313042 54.4893458,82.5403622 53.0194042,82.5403622 C49.3861523,82.5403622 46.3353301,85.5562007 46.3353301,89.605243 C46.3353301,93.6263609 49.3861523,96.6701238 53.0194042,96.6701238 Z M53.9069161,92.9561746 C52.0764228,92.9561746 50.7451549,91.4761798 50.7451549,89.605243 C50.7451549,87.7343062 52.0764228,86.226387 53.9069161,86.226387 C54.905367,86.226387 55.8760832,86.5335557 56.7081256,87.5109107 L56.7081256,91.6995752 C55.8760832,92.6769303 54.905367,92.9561746 53.9069161,92.9561746 Z M72.5600119,96.3908795 L78.3843088,82.8475309 L73.6416671,82.8475309 L70.4244364,90.6663713 L67.2072057,82.8475309 L62.4645639,82.8475309 L68.2888608,96.3908795 L72.5600119,96.3908795 Z M84.8895853,96.6701238 C86.3595269,96.6701238 87.5798558,96.2791818 88.5783067,95.6369199 L88.5783067,96.3908795 L93.0713358,96.3908795 L93.0713358,82.8475309 L88.5783067,82.8475309 L88.5783067,83.5735661 C87.5798558,82.9313042 86.3595269,82.5403622 84.8895853,82.5403622 C81.2563334,82.5403622 78.2055112,85.5562007 78.2055112,89.605243 C78.2055112,93.6263609 81.2563334,96.6701238 84.8895853,96.6701238 Z M85.7770972,92.9561746 C83.9466039,92.9561746 82.615336,91.4761798 82.615336,89.605243 C82.615336,87.7343062 83.9466039,86.226387 85.7770972,86.226387 C86.7755481,86.226387 87.7462643,86.5335557 88.5783067,87.5109107 L88.5783067,91.6995752 C87.7462643,92.6769303 86.7755481,92.9561746 85.7770972,92.9561746 Z M100.353185,96.3908795 L100.353185,78.2644951 L95.8601561,78.2644951 L95.8601561,96.3908795 L100.353185,96.3908795 Z M108.744424,96.8097459 C110.186631,96.8097459 111.351491,96.3350306 112.433146,95.4972977 L112.433146,96.3908795 L116.926175,96.3908795 L116.926175,82.8475309 L112.433146,82.8475309 L112.433146,91.3924065 C111.656573,92.2580638 110.796796,92.7327792 109.964753,92.7327792 C108.494812,92.7327792 107.496361,91.811273 107.496361,89.8844873 L107.496361,82.8475309 L103.003332,82.8475309 L103.003332,90.582598 C103.003332,94.4361694 105.333051,96.8097459 108.744424,96.8097459 Z M126.399069,96.6980482 C129.727239,96.6980482 132.306571,94.9388091 132.94447,92.1463661 L128.50691,92.1463661 C128.118624,92.7607036 127.39752,93.1237212 126.454539,93.1237212 C124.734985,93.1237212 123.792003,92.1742906 123.431451,90.9456156 L133.027674,90.9456156 L132.999939,90.8618423 C133.083143,90.3592026 133.083143,89.8286384 133.083143,89.3259987 C133.083143,85.2490319 130.115525,82.5403622 126.204926,82.5403622 C121.90604,82.5403622 119.049361,85.5003518 119.049361,89.605243 C119.049361,93.7380586 121.989245,96.6980482 126.399069,96.6980482 Z M128.867462,88.2927948 L123.375982,88.2927948 C123.708799,86.9244977 124.679515,86.030916 126.204926,86.030916 C127.647133,86.030916 128.617849,86.8128 128.867462,88.2927948 Z M139.782563,100.8 L139.782563,95.6369199 C140.781014,96.2791818 142.001343,96.6701238 143.471285,96.6701238 C147.104536,96.6701238 150.155359,93.6263609 150.155359,89.605243 C150.155359,85.5562007 147.104536,82.5403622 143.471285,82.5403622 C142.001343,82.5403622 140.781014,82.9313042 139.782563,83.5735661 L139.782563,82.8475309 L135.289534,82.8475309 L135.289534,100.8 L139.782563,100.8 Z M142.583773,92.9561746 C141.585322,92.9561746 140.614606,92.6769303 139.782563,91.6995752 L139.782563,87.5109107 C140.614606,86.5335557 141.585322,86.226387 142.583773,86.226387 C144.414266,86.226387 145.745534,87.7343062 145.745534,89.605243 C145.745534,91.4761798 144.414266,92.9561746 142.583773,92.9561746 Z M159.073558,96.6980482 C162.401728,96.6980482 164.981059,94.9388091 165.618959,92.1463661 L161.181399,92.1463661 C160.793112,92.7607036 160.072009,93.1237212 159.129028,93.1237212 C157.409473,93.1237212 156.466492,92.1742906 156.10594,90.9456156 L165.702163,90.9456156 L165.674428,90.8618423 C165.757632,90.3592026 165.757632,89.8286384 165.757632,89.3259987 C165.757632,85.2490319 162.790014,82.5403622 158.879415,82.5403622 C154.580529,82.5403622 151.72385,85.5003518 151.72385,89.605243 C151.72385,93.7380586 154.663733,96.6980482 159.073558,96.6980482 Z M161.541951,88.2927948 L156.050471,88.2927948 C156.383288,86.9244977 157.354004,86.030916 158.879415,86.030916 C160.321622,86.030916 161.292338,86.8128 161.541951,88.2927948 Z M174.648097,96.8097459 C178.891513,96.8097459 181.942336,93.7380586 181.942336,89.605243 C181.942336,85.5282762 178.891513,82.5403622 174.648097,82.5403622 C170.404681,82.5403622 167.353858,85.5282762 167.353858,89.605243 C167.353858,93.7380586 170.404681,96.8097459 174.648097,96.8097459 Z M174.675832,92.9003257 C172.845338,92.9003257 171.62501,91.4482554 171.62501,89.6331674 C171.62501,87.8739283 172.845338,86.4497824 174.675832,86.4497824 C176.47859,86.4497824 177.698919,87.8739283 177.698919,89.6331674 C177.698919,91.4482554 176.47859,92.9003257 174.675832,92.9003257 Z M188.641755,100.8 L188.641755,95.6369199 C189.640206,96.2791818 190.860535,96.6701238 192.330477,96.6701238 C195.963729,96.6701238 199.014551,93.6263609 199.014551,89.605243 C199.014551,85.5562007 195.963729,82.5403622 192.330477,82.5403622 C190.860535,82.5403622 189.640206,82.9313042 188.641755,83.5735661 L188.641755,82.8475309 L184.148726,82.8475309 L184.148726,100.8 L188.641755,100.8 Z M191.442965,92.9561746 C190.444514,92.9561746 189.473798,92.6769303 188.641755,91.6995752 L188.641755,87.5109107 C189.473798,86.5335557 190.444514,86.226387 191.442965,86.226387 C193.273458,86.226387 194.604726,87.7343062 194.604726,89.605243 C194.604726,91.4761798 193.273458,92.9561746 191.442965,92.9561746 Z M205.603031,96.3908795 L205.603031,78.2644951 L201.110002,78.2644951 L201.110002,96.3908795 L205.603031,96.3908795 Z M215.075926,96.6980482 C218.404096,96.6980482 220.983427,94.9388091 221.621326,92.1463661 L217.183767,92.1463661 C216.79548,92.7607036 216.074377,93.1237212 215.131395,93.1237212 C213.411841,93.1237212 212.46886,92.1742906 212.108308,90.9456156 L221.704531,90.9456156 L221.676796,90.8618423 C221.76,90.3592026 221.76,89.8286384 221.76,89.3259987 C221.76,85.2490319 218.792382,82.5403622 214.881783,82.5403622 C210.582897,82.5403622 207.726218,85.5003518 207.726218,89.605243 C207.726218,93.7380586 210.666101,96.6980482 215.075926,96.6980482 Z M217.544318,88.2927948 L212.052838,88.2927948 C212.385655,86.9244977 213.356372,86.030916 214.881783,86.030916 C216.32399,86.030916 217.294706,86.8128 217.544318,88.2927948 Z" id="datavaluepeople-copy" fill="#131F21" fill-rule="nonzero"></path>
        </g>
    </g>
</svg>